<svg xmlns="http://www.w3.org/2000/svg" width="120" height="120" viewBox="0 0 120 120">
    <defs>
        <linearGradient id="a" x1="0%" y1="100%" y2="0%">
            <stop offset="0%" stop-color="#09B3BF"/>
            <stop offset="100%" stop-color="#5FE3C2"/>
        </linearGradient>
    </defs>
    <path fill="url(#a)" fill-rule="nonzero" d="M52.964 8.793l2.54-3.806c.4-.598.546-1.32.403-2.031a2.696 2.696 0 0 0-1.146-1.714c-1.201-.803-2.95-.447-3.744.746l-3.054 4.583c-5.475-1.767-11.699-1.767-17.173 0l-3.053-4.58c-.795-1.194-2.52-1.56-3.748-.746a2.7 2.7 0 0 0-.744 3.737l2.544 3.815c-6.279 3.699-10.226 10.1-10.226 16.82 0 1.055.855 1.912 1.911 1.912h43.97a1.913 1.913 0 0 0 1.913-1.913c-.001-6.688-4.017-13.092-10.393-16.823zm-33.442 14.91c.734-5.193 4.435-9.954 9.84-12.47.233-.11.44-.264.61-.451.243.015.5-.034.745-.128 5.442-2.11 11.876-2.11 17.32 0 .244.094.497.142.743.128.169.187.377.343.609.451 5.49 2.554 9.246 7.314 10.004 12.47H19.522zm41.857 5.737H17.37a1.912 1.912 0 0 0-1.912 1.91v35.426c0 3.8 3.09 6.889 6.89 6.889h1.493v9.354a6.635 6.635 0 0 0 6.629 6.627c3.653 0 6.627-2.973 6.627-6.627v-9.354h4.56v9.354a6.634 6.634 0 0 0 6.627 6.627 6.634 6.634 0 0 0 6.628-6.627v-9.354h1.495a6.895 6.895 0 0 0 6.887-6.89V31.352a1.918 1.918 0 0 0-1.916-1.911zm-1.911 37.336a3.069 3.069 0 0 1-3.066 3.067h-3.593c-.602 0-1.167.284-1.529.763a1.907 1.907 0 0 0-.306 1.684c.076.257.112.514.112.772v9.957a2.806 2.806 0 0 1-2.804 2.803 2.807 2.807 0 0 1-2.804-2.803v-9.957c0-.256.035-.518.113-.772a1.912 1.912 0 0 0-1.836-2.447h-8.758a1.911 1.911 0 0 0-1.84 2.438c.077.266.115.526.115.782v9.958a2.806 2.806 0 0 1-5.611 0v-9.958c0-.257.035-.515.11-.766a1.906 1.906 0 0 0-1.833-2.451h-3.594a3.07 3.07 0 0 1-3.064-3.067V33.266h40.183v33.51h.005zM7.599 30.285A6.635 6.635 0 0 0 .97 36.911v20.172A6.635 6.635 0 0 0 7.6 63.71a6.634 6.634 0 0 0 6.627-6.627V36.91c0-3.653-2.974-6.626-6.628-6.626zm2.804 26.799A2.806 2.806 0 0 1 7.6 59.888a2.81 2.81 0 0 1-2.805-2.804V36.91a2.806 2.806 0 0 1 2.805-2.802 2.807 2.807 0 0 1 2.804 2.802v20.173zm60.75-26.799a6.634 6.634 0 0 0-6.627 6.626v20.172a6.634 6.634 0 0 0 6.627 6.627 6.634 6.634 0 0 0 6.627-6.627V36.91a6.635 6.635 0 0 0-6.627-6.626zm2.803 26.799a2.807 2.807 0 0 1-2.803 2.804 2.808 2.808 0 0 1-2.805-2.804V36.91a2.807 2.807 0 0 1 2.805-2.802 2.808 2.808 0 0 1 2.803 2.802v20.173zm-25.459-41.9a2.27 2.27 0 1 0 0 4.537 2.27 2.27 0 0 0 0-4.538zm-17.205 0a2.268 2.268 0 1 0 2.27 2.268 2.267 2.267 0 0 0-2.27-2.269z" transform="translate(21 15)"/>
</svg>
