<svg xmlns="http://www.w3.org/2000/svg" width="120" height="120" viewBox="0 0 120 120">
    <defs>
        <linearGradient id="a" x1="0%" y1="100%" y2="0%">
            <stop offset="0%" stop-color="#09B3BF"/>
            <stop offset="100%" stop-color="#5FE3C2"/>
        </linearGradient>
    </defs>
    <path fill="url(#a)" fill-rule="nonzero" d="M70.393 63.852c-6.518-2.11-10.9-8.085-10.9-14.866 0-6.032 3.409-11.43 8.903-14.084a1.99 1.99 0 0 0 .858-2.787c-.225-.39-5.647-9.551-17.338-9.551-4.888 0-10.175 1.61-15.73 4.788-2.311-1.383-7.948-4.326-13.985-4.326-3.21 0-6.09.832-8.567 2.473-1.802 1.004-19.455 11.706-10.232 40.345.27.642 6.705 15.714 14.343 21.373.604.545 3.11 2.585 6.803 2.585 2.271 0 4.534-.755 6.729-2.246.697-.283 3.7-1.436 6.902-1.436 2.072 0 3.8.48 5.163 1.45.146.1 3.595 2.43 7.622 2.43 2.62 0 4.965-.991 6.79-2.87.986-.858 9.488-8.473 13.91-20.504.095-.264.122-.739.102-1.02a1.992 1.992 0 0 0-1.373-1.754zM55.094 84.16a1.365 1.365 0 0 0-.153.148c-1.094 1.15-2.395 1.707-3.976 1.707-2.769 0-5.344-1.713-5.346-1.713-2.022-1.44-4.526-2.166-7.439-2.166-4.516 0-8.514 1.772-8.68 1.847-.114.05-.225.114-.326.187-1.57 1.095-3.124 1.65-4.624 1.65-2.484 0-4.124-1.55-4.128-1.55a1.736 1.736 0 0 0-.233-.201c-6.787-4.951-13.052-19.616-13.06-19.616-8.516-26.467 7.739-35.124 8.429-35.474.076-.037.149-.082.219-.13 1.823-1.223 3.984-1.845 6.421-1.845 6.46 0 12.756 4.272 12.819 4.317.642.442 1.49.468 2.16.063 5.31-3.212 10.272-4.842 14.735-4.842 6.716 0 10.825 3.687 12.696 5.915-5.665 3.595-9.1 9.738-9.1 16.527 0 7.838 4.651 14.811 11.762 17.932C62.88 77.45 55.175 84.09 55.094 84.16zM35.65 23.967c.046 0 .09-.001.138-.005.202-.013 20.193-1.609 19.11-22.076a1.996 1.996 0 0 0-.699-1.41 1.983 1.983 0 0 0-1.501-.464c-.176.02-17.825 2.146-19.034 21.844-.037.571.178 1.13.586 1.535a2 2 0 0 0 1.4.576zM50.932 4.441c-.495 10.888-8.806 14.184-13.027 15.157C39.56 9.013 47.123 5.534 50.932 4.44z" transform="translate(24 15)"/>
</svg>
