<svg xmlns="http://www.w3.org/2000/svg" width="120" height="120" viewBox="0 0 120 120">
    <defs>
        <linearGradient id="a" x1="0%" y1="100%" y2="0%">
            <stop offset="0%" stop-color="#09B3BF"/>
            <stop offset="100%" stop-color="#5FE3C2"/>
        </linearGradient>
    </defs>
    <path fill="url(#a)" fill-rule="nonzero" d="M90 0h-.155v90H0V0h90zm-3.259 3.259H3.26v83.327H86.74V3.26zM53.07 71.845c2.172-1.242 4.19-2.483 6.362-3.724.155.155.155.31.31.465 1.087 1.552 2.328 2.948 4.19 3.724 1.862.776 3.724.776 5.431.31.62-.154 1.241-.465 1.707-.93 1.707-1.242 1.862-3.724.31-5.276-.465-.466-1.241-.931-1.862-1.397-1.551-.776-3.103-1.396-4.655-2.017-1.862-.776-3.724-1.862-5.431-3.103-4.965-3.88-4.81-11.018-2.172-14.431 1.707-2.328 4.034-3.725 6.672-4.19 2.948-.62 5.897-.466 8.69.776 2.482.93 4.19 2.948 5.43 5.12v.156c-2.017 1.241-4.034 2.638-6.051 3.879l-.931-1.397c-1.397-1.862-3.569-2.172-5.431-1.707-2.948.776-2.948 4.19-1.397 5.587.621.465 1.397 1.086 2.018 1.396 1.396.776 2.638 1.242 4.19 1.862 1.861.776 3.568 1.552 5.275 2.793 3.57 2.483 4.966 5.742 4.81 9.931-.155 2.794-1.086 5.276-3.103 7.138-1.241 1.242-2.793 2.018-4.345 2.483-4.81 1.397-9.31 1.086-13.81-1.241-2.483-1.242-4.345-3.104-5.586-5.586-.466-.31-.621-.466-.621-.621zM31.81 68.897c.156.155.156.31.31.31l.932 1.396c1.241 1.863 3.103 2.483 5.276 2.018 1.241-.31 2.172-.931 2.482-2.173.156-.93.31-1.862.31-2.638v-18-7.913c0-.31.156-.466.466-.466h6.983c.31 0 .465.155.465.466V68.74c0 1.707-.31 3.259-.93 4.966-1.087 2.638-2.949 4.5-5.742 5.43-3.569 1.242-7.138 1.242-10.862-.31-2.638-1.24-4.655-3.103-5.897-5.74-.155-.156-.155-.311.156-.466 2.017-1.397 3.879-2.638 6.051-3.724-.155 0-.155 0 0 0z" transform="translate(15 15)"/>
</svg>
