<svg xmlns="http://www.w3.org/2000/svg" width="120" height="120" viewBox="0 0 120 120">
    <defs>
        <linearGradient id="a" x1="0%" y1="100%" y2="0%">
            <stop offset="0%" stop-color="#09B3BF"/>
            <stop offset="100%" stop-color="#5FE3C2"/>
        </linearGradient>
    </defs>
    <path fill="url(#a)" fill-rule="nonzero" d="M87.637 29.902c-1.76-6.596-4.837-11.58-11.433-11.58H70.78l-.146-5.423c0-6.156-5.277-10.847-11.434-12.02A77.494 77.494 0 0 0 47.474 0h-.293c-3.811 0-7.622.293-10.994.88-9.674 1.758-11.433 5.423-11.433 12.019v8.648h22.867v2.932H15.959c-6.596 0-12.459 4.104-14.364 11.726-2.053 8.648-2.2 14.218 0 23.306 1.612 6.89 5.57 11.727 12.166 11.727h4.983v5.277c0 6.156 5.424 9.82 11.434 11.726C33.988 89.267 37.653 90 41.61 90c3.664 0 7.329-.586 11.433-1.759 5.717-1.759 11.433-4.984 11.433-11.726v-8.649h-22.72v-2.931h34.3c6.596 0 9.235-4.69 11.433-11.727 2.492-7.182 2.492-14.071.147-23.306zM18.45 68.16h-4.69c-4.544 0-7.622-3.079-9.088-9.235-2.052-8.502-2.052-13.485 0-21.987 1.319-5.717 5.57-9.234 11.286-9.234H50.845V18.616H27.832v-5.57c0-4.838.293-7.33 8.795-8.795 3.078-.587 6.89-.88 10.407-.88l.293.147c3.812 0 7.623.293 10.994.88 4.397.732 8.795 3.957 8.795 8.794l.293 15.244c0 2.639-.586 4.984-1.76 6.89-.292.586-.585 1.026-1.025 1.612l-.147.147c-2.345 2.931-5.57 4.837-8.208 5.57-1.026.293-2.052.44-3.078.44H35.307c-8.794 0-15.243 7.768-16.563 13.778a18.543 18.543 0 0 0-.44 4.104v7.183h.147zM84.56 52.329c-2.492 7.329-4.251 9.381-8.502 9.381H38.533v9.381h23.013v5.57c0 3.958-3.079 6.89-9.235 8.648-3.81 1.027-7.329 1.613-10.7 1.613-3.372 0-6.743-.586-10.554-1.613-8.062-2.345-9.234-6.45-9.234-8.648V58.925v-.586c.293-1.906 1.026-3.665 2.052-5.277 2.345-3.665 6.45-7.036 11.58-7.036H53.336c4.251 0 8.648-1.905 12.166-5.423 2.492-2.639 4.105-5.57 4.837-8.795.294-1.173.44-2.492.44-3.958v-6.303h5.424c2.931 0 6.45 1.026 8.355 9.235 2.198 8.941 2.198 15.097 0 21.547zM35.6 8.062c1.906 0 3.518 1.612 3.518 3.664 0 2.053-1.612 3.518-3.518 3.518-1.905 0-3.518-1.612-3.518-3.518 0-2.198 1.613-3.664 3.518-3.664z" transform="translate(15 15)"/>
</svg>
